<svg width="71" height="34" viewBox="0 0 71 34" fill="none" xmlns="http://www.w3.org/2000/svg">
<path d="M47.6016 29.2923C47.8132 28.7354 47.8877 28.1362 47.8191 27.5447C47.7505 26.9533 47.5407 26.3867 47.2072 25.8923C46.8646 25.4838 46.4444 25.1465 45.9706 24.8997C45.4968 24.6528 44.9788 24.5014 44.4461 24.4539L21.5683 24.1923C21.4368 24.1923 21.3053 24.0616 21.1738 24.0616C21.1432 24.0387 21.1184 24.0091 21.1013 23.9751C21.0841 23.941 21.0752 23.9035 21.0752 23.8654C21.0752 23.8273 21.0841 23.7898 21.1013 23.7558C21.1184 23.7217 21.1432 23.6921 21.1738 23.6693C21.3053 23.4077 21.4368 23.2769 21.6998 23.2769L44.709 23.0154C46.1698 22.8542 47.561 22.3088 48.7395 21.4354C49.9181 20.5621 50.8414 19.3922 51.4146 18.0462L52.7294 14.6462C52.7294 14.5154 52.8609 14.3846 52.7294 14.2539C52.0146 11.0872 50.2799 8.23914 47.7891 6.14251C45.2982 4.04588 42.1872 2.81529 38.9289 2.63772C35.6706 2.46015 32.4431 3.34531 29.7368 5.15871C27.0305 6.9721 24.9934 9.61459 23.935 12.6846C22.5609 11.7086 20.8849 11.2456 19.2016 11.3769C17.6568 11.5483 16.2165 12.2371 15.1174 13.3302C14.0183 14.4234 13.3257 15.8559 13.1535 17.3923C13.0659 18.1788 13.1104 18.9742 13.285 19.7462C10.7854 19.8149 8.41145 20.8508 6.66806 22.6336C4.92467 24.4164 3.94942 26.8054 3.94977 29.2923C3.92819 29.7755 3.97242 30.2594 4.08125 30.7308C4.08729 30.8329 4.13078 30.9292 4.20349 31.0015C4.27619 31.0738 4.37305 31.1171 4.4757 31.1231H46.6813C46.9442 31.1231 47.2072 30.9923 47.2072 30.7308L47.6016 29.2923Z" fill="black"/>
<path d="M54.8331 14.6462H54.1757C54.0442 14.6462 53.9127 14.7769 53.7812 14.9077L52.8608 18.0462C52.6493 18.6031 52.5747 19.2023 52.6433 19.7938C52.712 20.3852 52.9218 20.9518 53.2553 21.4462C53.5979 21.8547 54.0181 22.192 54.4918 22.4388C54.9656 22.6857 55.4837 22.8372 56.0164 22.8846L60.8812 23.1462C61.0127 23.1462 61.1442 23.2769 61.2757 23.2769C61.3063 23.2998 61.3311 23.3294 61.3482 23.3634C61.3654 23.3975 61.3743 23.435 61.3743 23.4731C61.3743 23.5112 61.3654 23.5487 61.3482 23.5828C61.3311 23.6168 61.3063 23.6464 61.2757 23.6693C61.1442 23.9308 61.0127 24.0616 60.7497 24.0616L55.7534 24.3231C54.2927 24.4843 52.9015 25.0297 51.7229 25.9031C50.5444 26.7764 49.621 27.9463 49.0479 29.2923L48.7849 30.4693C48.6534 30.6 48.7849 30.8616 49.0479 30.8616H66.4034C66.457 30.8692 66.5116 30.8643 66.563 30.8473C66.6143 30.8302 66.661 30.8015 66.6993 30.7635C66.7375 30.7254 66.7664 30.679 66.7835 30.6279C66.8006 30.5769 66.8055 30.5225 66.7979 30.4693C67.1109 29.3613 67.2875 28.2196 67.3238 27.0693C67.303 23.7809 65.9803 20.633 63.6423 18.3077C61.3044 15.9824 58.1394 14.6669 54.8331 14.6462Z" fill="black"/>
</svg>
